<svg xmlns="http://www.w3.org/2000/svg" xmlns:xlink="http://www.w3.org/1999/xlink" version="1.1" width="256" height="256" viewBox="0 0 256 256" xml:space="preserve">
<desc>Created with Fabric.js 1.7.22</desc>
<defs>
</defs>
<g transform="translate(128 128) scale(0.72 0.72)" style="">
	<g style="stroke: none; stroke-width: 0; stroke-dasharray: none; stroke-linecap: butt; stroke-linejoin: miter; stroke-miterlimit: 10; fill: none; fill-rule: nonzero; opacity: 1;" transform="translate(-175.05 -175.05) scale(3.89 3.89)" >
	<path d="M 45 0 C 20.187 0 0 20.187 0 45 c 0 24.813 20.187 45 45 45 c 1.657 0 3 -1.343 3 -3 s -1.343 -3 -3 -3 C 23.495 84 6 66.505 6 45 S 23.495 6 45 6 s 39 17.495 39 39 c 0 16.275 -4.943 18.624 -10.221 18.738 c -4.713 0 -8.078 -1.469 -10.287 -4.49 c -6.157 -8.421 -2.111 -27.215 -0.033 -33.746 c 0.502 -1.578 -0.369 -3.266 -1.947 -3.769 c -1.583 -0.503 -3.266 0.368 -3.769 1.945 c -0.018 0.055 -0.06 0.189 -0.114 0.367 c -16.147 -6.859 -25.04 1.477 -28.222 5.584 c -7.484 9.658 -7.57 25.393 -0.183 33.672 c 2.009 2.251 6.358 5.828 13.688 5.828 c 4.45 0 10.004 -1.327 16.795 -5.062 c 3.343 3.752 8.064 5.67 14.133 5.67 c 0.001 0 0.002 0 0.003 0 C 90 69.392 90 51.671 90 45 C 90 20.187 69.813 0 45 0 z M 33.702 59.306 c -5.518 -6.185 -5.304 -18.578 0.449 -26.002 c 4.951 -6.389 12.7 -7.556 21.96 -3.374 c -1.649 7.461 -3.442 20.023 0.398 29.047 C 46.447 64.43 38.404 64.577 33.702 59.306 z" style="stroke: none; stroke-width: 1; stroke-dasharray: none; stroke-linecap: butt; stroke-linejoin: miter; stroke-miterlimit: 10; fill: rgb(0,0,0); fill-rule: nonzero; opacity: 1;" transform=" matrix(1 0 0 1 0 0) " stroke-linecap="round" />
</g>
</g>
</svg>